
        <svg xmlns="http://www.w3.org/2000/svg" xmlns:xlink="http://www.w3.org/1999/xlink" version="1.1" width="3131.2910284463896" 
        height="1054.4310722100656" viewBox="0 0 3131.2910284463896 1054.4310722100656">
			<rect fill="#0c93f4" width="3131.2910284463896" height="1054.4310722100656"/>
			<g transform="scale(6.564551422319475) translate(10, 10)">
				<defs id="SvgjsDefs2540"></defs><g id="SvgjsG2541" featureKey="symbolContainer" transform="matrix(1.786848862173189,0,0,1.786848862173189,0,0)" fill="#ffffff"><path xmlns="http://www.w3.org/2000/svg" d="M116.1 78.7H0V0h116.1zM2 76.7h112.1V2H2z"></path></g><g id="SvgjsG2542" featureKey="monogramFeature-0" transform="matrix(2.0926758261984992,0,0,2.0926758261984992,61.78026281156785,-12.668164871572984)" fill="#ffffff"><path d="M36 18 c0.54 0 0.9 0.36 0.9 0.9 l0 23.88 c0 12.87 -6.96 18.09 -16.65 18.09 c-9.6 0 -16.47 -5.01 -16.8 -17.19 c0 -0.6 0.36 -0.9 0.9 -0.9 l7.68 0 c0.54 0 0.9 0.3 0.9 0.9 c0.27 6.27 3.24 7.86 7.32 7.86 c3.99 0 6.96 -1.68 6.96 -8.76 l0 -16.26 l-16.5 0 c-0.54 0 -0.9 -0.36 -0.9 -0.9 l0 -6.72 c0 -0.54 0.36 -0.9 0.9 -0.9 l25.29 0 z"></path></g><g id="SvgjsG2543" featureKey="nameFeature-0" transform="matrix(1.1337309880011623,0,0,1.1337309880011623,230.31049430115766,19.801054309617065)" fill="#ffffff"><path d="M5.28 16.92 c-1.76 0 -3.16 -1.36 -3.16 -3.12 c0 -1.68 1.4 -3.04 3.16 -3.04 s3.16 1.36 3.16 3.04 c0 1.76 -1.4 3.12 -3.16 3.12 z M2.6 41.08 l0 -21.32 l5.28 0 l0 20.88 c0 5.08 -2.16 8.32 -7 8.32 c-1.32 0 -2.72 -0.4 -3.8 -0.88 l1.2 -4.08 c0.44 0.24 1.2 0.48 1.8 0.48 c1.72 0 2.52 -1.36 2.52 -3.4 z M20.990000000000002 40.56 c-5.6 0 -10 -4.56 -10 -10.68 c0 -6.16 4.4 -10.68 10 -10.68 c2.84 0 5.08 1.16 6.52 3 l0 -2.44 l5.32 0 l0 20.24 l-5.32 0 l0 -2.48 c-1.44 1.84 -3.68 3.04 -6.52 3.04 z M21.91 35.84 c3.2 0 5.76 -2.48 5.76 -6 c0 -3.48 -2.56 -5.92 -5.76 -5.92 c-3.32 0 -5.68 2.44 -5.68 5.92 c0 3.52 2.36 6 5.68 6 z M52.379999999999995 10.8 l5.32 0 l0 29.2 l-5.32 0 l0 -2.48 c-1.44 1.84 -3.68 3.04 -6.52 3.04 c-5.6 0 -10 -4.56 -10 -10.68 c0 -6.16 4.4 -10.68 10 -10.68 c2.84 0 5.08 1.16 6.52 3 l0 -11.4 z M46.78 35.84 c3.2 0 5.76 -2.48 5.76 -6 c0 -3.48 -2.56 -5.92 -5.76 -5.92 c-3.32 0 -5.68 2.44 -5.68 5.92 c0 3.52 2.36 6 5.68 6 z M71.73 40.56 c-6.48 0 -11 -4.28 -11 -10.68 c0 -6.04 4.24 -10.68 10.6 -10.68 c6.64 0 10.44 4.6 10.44 10.4 c0 0.64 0 1.24 -0.12 1.88 l-15.72 0 c0.36 2.6 2.2 4.6 5.88 4.6 c2.56 0 4.12 -1.16 4.92 -2.68 l4.76 1.4 c-1.16 2.64 -4.44 5.76 -9.76 5.76 z M65.93 28.16 l10.68 0 c-0.24 -2.48 -2.16 -4.48 -5.32 -4.48 c-3.08 0 -5.08 2.16 -5.36 4.48 z M90.12 22.76 c1.2 -2.36 3.52 -3.72 6.68 -3.28 l0 4.96 c-4.32 -0.68 -6.68 1.32 -6.68 6.76 l0 8.8 l-5.28 0 l0 -20.24 l5.28 0 l0 3 z M108.91000000000001 40.56 c-6.24 0 -10.84 -4.64 -10.84 -10.68 c0 -6.08 4.6 -10.68 10.84 -10.68 s10.8 4.6 10.8 10.68 c0 6.04 -4.56 10.68 -10.8 10.68 z M108.91000000000001 35.76 c3.36 0 5.68 -2.52 5.68 -5.88 s-2.32 -5.88 -5.68 -5.88 c-3.4 0 -5.68 2.52 -5.68 5.88 s2.28 5.88 5.68 5.88 z M125.26 40.32 c-1.84 0 -3.28 -1.44 -3.28 -3.28 c0 -1.72 1.44 -3.12 3.28 -3.12 c1.8 0 3.24 1.4 3.24 3.12 c0 1.84 -1.44 3.28 -3.24 3.28 z M147.25 10.8 l5.32 0 l0 29.2 l-5.32 0 l0 -2.48 c-1.44 1.84 -3.68 3.04 -6.52 3.04 c-5.6 0 -10 -4.56 -10 -10.68 c0 -6.16 4.4 -10.68 10 -10.68 c2.84 0 5.08 1.16 6.52 3 l0 -11.4 z M141.65 35.84 c3.2 0 5.76 -2.48 5.76 -6 c0 -3.48 -2.56 -5.92 -5.76 -5.92 c-3.32 0 -5.68 2.44 -5.68 5.92 c0 3.52 2.36 6 5.68 6 z M166.60000000000002 40.56 c-6.48 0 -11 -4.28 -11 -10.68 c0 -6.04 4.24 -10.68 10.6 -10.68 c6.64 0 10.44 4.6 10.44 10.4 c0 0.64 0 1.24 -0.12 1.88 l-15.72 0 c0.36 2.6 2.2 4.6 5.88 4.6 c2.56 0 4.12 -1.16 4.92 -2.68 l4.76 1.4 c-1.16 2.64 -4.44 5.76 -9.76 5.76 z M160.8 28.16 l10.68 0 c-0.24 -2.48 -2.16 -4.48 -5.32 -4.48 c-3.08 0 -5.08 2.16 -5.36 4.48 z M194.19 19.76 l5.76 0 l-8.36 20.24 l-5.96 0 l-8.36 -20.24 l5.8 0 l5.56 14.4 z"></path></g><g id="SvgjsG2544" featureKey="sloganFeature-0" transform="matrix(1.2897800011016791,0,0,1.2897800011016791,226.8710196628327,78.03518848606296)" fill="#ffffff"><path d="M17.04 6 l2.88 0 l-4.24 14 l-2.9 0 l-2.76 -9.4 l-2.76 9.4 l-2.9 0 l-4.26 -14 l2.88 0 l2.88 10.14 l2.92 -10.14 l2.46 0 l2.92 10.14 z M24.715 20.28 c-3.24 0 -5.5 -2.14 -5.5 -5.34 c0 -3.02 2.12 -5.34 5.3 -5.34 c3.32 0 5.22 2.3 5.22 5.2 c0 0.32 0 0.62 -0.06 0.94 l-7.86 0 c0.18 1.3 1.1 2.3 2.94 2.3 c1.28 0 2.06 -0.58 2.46 -1.34 l2.38 0.7 c-0.58 1.32 -2.22 2.88 -4.88 2.88 z M21.815 14.08 l5.34 0 c-0.12 -1.24 -1.08 -2.24 -2.66 -2.24 c-1.54 0 -2.54 1.08 -2.68 2.24 z M37.19 9.6 c2.8 0 4.98 2.26 4.98 5.34 c0 3.06 -2.18 5.34 -4.98 5.34 c-1.44 0 -2.54 -0.6 -3.28 -1.52 l0 1.24 l-2.64 0 l0 -14.6 l2.64 0 l0 5.7 c0.74 -0.92 1.84 -1.5 3.28 -1.5 z M36.73 17.92 c1.66 0 2.84 -1.24 2.84 -3 c0 -1.74 -1.18 -2.96 -2.84 -2.96 c-1.6 0 -2.88 1.22 -2.88 2.96 c0 1.76 1.28 3 2.88 3 z M54.24 6 c4.08 0 6.7 2.88 6.7 7 c0 4.04 -2.58 7 -6.7 7 l-6.08 0 l0 -14 l6.08 0 z M54.18 17.52 c2.4 0 4 -1.88 4 -4.58 c0 -2.66 -1.6 -4.48 -4 -4.48 l-3.3 0 l0 9.06 l3.3 0 z M67.375 20.28 c-3.24 0 -5.5 -2.14 -5.5 -5.34 c0 -3.02 2.12 -5.34 5.3 -5.34 c3.32 0 5.22 2.3 5.22 5.2 c0 0.32 0 0.62 -0.06 0.94 l-7.86 0 c0.18 1.3 1.1 2.3 2.94 2.3 c1.28 0 2.06 -0.58 2.46 -1.34 l2.38 0.7 c-0.58 1.32 -2.22 2.88 -4.88 2.88 z M64.475 14.08 l5.34 0 c-0.12 -1.24 -1.08 -2.24 -2.66 -2.24 c-1.54 0 -2.54 1.08 -2.68 2.24 z M81.16999999999999 9.88 l2.88 0 l-4.18 10.12 l-2.98 0 l-4.18 -10.12 l2.9 0 l2.78 7.2 z M89.845 20.28 c-3.24 0 -5.5 -2.14 -5.5 -5.34 c0 -3.02 2.12 -5.34 5.3 -5.34 c3.32 0 5.22 2.3 5.22 5.2 c0 0.32 0 0.62 -0.06 0.94 l-7.86 0 c0.18 1.3 1.1 2.3 2.94 2.3 c1.28 0 2.06 -0.58 2.46 -1.34 l2.38 0.7 c-0.58 1.32 -2.22 2.88 -4.88 2.88 z M86.945 14.08 l5.34 0 c-0.12 -1.24 -1.08 -2.24 -2.66 -2.24 c-1.54 0 -2.54 1.08 -2.68 2.24 z M96.39999999999999 20 l0 -14.6 l2.64 0 l0 14.6 l-2.64 0 z M105.975 20.28 c-3.12 0 -5.42 -2.32 -5.42 -5.34 c0 -3.04 2.3 -5.34 5.42 -5.34 s5.4 2.3 5.4 5.34 c0 3.02 -2.28 5.34 -5.4 5.34 z M105.975 17.88 c1.68 0 2.84 -1.26 2.84 -2.94 s-1.16 -2.94 -2.84 -2.94 c-1.7 0 -2.84 1.26 -2.84 2.94 s1.14 2.94 2.84 2.94 z M118.83 9.6 c2.8 0 4.98 2.26 4.98 5.34 c0 3.06 -2.18 5.34 -4.98 5.34 c-1.44 0 -2.54 -0.6 -3.28 -1.52 l0 5.44 l-2.64 0 l0 -14.32 l2.64 0 l0 1.22 c0.74 -0.92 1.84 -1.5 3.28 -1.5 z M118.37 17.92 c1.66 0 2.84 -1.24 2.84 -3 c0 -1.74 -1.18 -2.96 -2.84 -2.96 c-1.6 0 -2.88 1.22 -2.88 2.96 c0 1.76 1.28 3 2.88 3 z M130.225 20.28 c-3.24 0 -5.5 -2.14 -5.5 -5.34 c0 -3.02 2.12 -5.34 5.3 -5.34 c3.32 0 5.22 2.3 5.22 5.2 c0 0.32 0 0.62 -0.06 0.94 l-7.86 0 c0.18 1.3 1.1 2.3 2.94 2.3 c1.28 0 2.06 -0.58 2.46 -1.34 l2.38 0.7 c-0.58 1.32 -2.22 2.88 -4.88 2.88 z M127.325 14.08 l5.34 0 c-0.12 -1.24 -1.08 -2.24 -2.66 -2.24 c-1.54 0 -2.54 1.08 -2.68 2.24 z M139.42 11.38 c0.6 -1.18 1.76 -1.86 3.34 -1.64 l0 2.48 c-2.16 -0.34 -3.34 0.66 -3.34 3.38 l0 4.4 l-2.64 0 l0 -10.12 l2.64 0 l0 1.5 z"></path></g>
			</g>
		</svg>
	